HIERARCHY
ROOT hip
{
  OFFSET 0 0 0
  CHANNELS 6 Xposition Yposition Zposition Zrotation Yrotation Xrotation
  JOINT abdomen
  {
    OFFSET 0 20.6881 -0.73152
    CHANNELS 3 Zrotation Xrotation Yrotation
    JOINT chest
    {
      OFFSET 0 11.7043 -0.48768
      CHANNELS 3 Zrotation Xrotation Yrotation
      JOINT neck
      {
        OFFSET 0 22.1894 -2.19456
        CHANNELS 3 Zrotation Xrotation Yrotation
        JOINT head
        {
          OFFSET -0.24384 7.07133 1.2192
          CHANNELS 3 Zrotation Xrotation Yrotation
          JOINT leftEye
          {
            OFFSET 4.14528 8.04674 8.04672
            CHANNELS 3 Zrotation Xrotation Yrotation
            End Site
            {
              OFFSET 1 0 0
            }
          }
          JOINT rightEye
          {
            OFFSET -3.6576 8.04674 8.04672
            CHANNELS 3 Zrotation Xrotation Yrotation
            End Site
            {
              OFFSET 1 0 0
            }
          }
        }
      }
      JOINT rCollar
      {
        OFFSET -2.68224 19.2634 -4.8768
        CHANNELS 3 Zrotation Xrotation Yrotation
        JOINT rShldr
        {
          OFFSET -8.77824 -1.95073 1.46304
          CHANNELS 3 Zrotation Xrotation Yrotation
          JOINT rForeArm
          {
            OFFSET -28.1742 -1.7115 0.48768
            CHANNELS 3 Zrotation Xrotation Yrotation
            JOINT rHand
            {
              OFFSET -22.5879 0.773209 7.07136
              CHANNELS 3 Zrotation Xrotation Yrotation
              JOINT rThumb1
              {
                OFFSET -1.2192 -0.487915 3.41376
                CHANNELS 3 Zrotation Xrotation Yrotation
                JOINT rThumb2
                {
                  OFFSET -3.37035 -0.52449 3.41376
                  CHANNELS 3 Zrotation Xrotation Yrotation
                  End Site
                  {
                    OFFSET -1.78271 -1.18214 1.43049
                  }
                }
              }
              JOINT rIndex1
              {
                OFFSET -7.75947 0.938293 5.60832
                CHANNELS 3 Zrotation Xrotation Yrotation
                JOINT rIndex2
                {
                  OFFSET -2.54057 -0.884171 1.56538
                  CHANNELS 3 Zrotation Xrotation Yrotation
                  End Site
                  {
                    OFFSET -1.62519 -0.234802 1.16502
                  }
                }
              }
              JOINT rMid1
              {
                OFFSET -8.24714 1.18213 3.41376
                CHANNELS 3 Zrotation Xrotation Yrotation
                JOINT rMid2
                {
                  OFFSET -3.10165 -0.590103 1.0647
                  CHANNELS 3 Zrotation Xrotation Yrotation
                  End Site
                  {
                    OFFSET -2.48547 -0.328903 0.83742
                  }
                }
              }
              JOINT rRing1
              {
                OFFSET -8.82822 0.546677 1.51678
                CHANNELS 3 Zrotation Xrotation Yrotation
                JOINT rRing2
                {
                  OFFSET -2.60934 -0.819778 -0.0198488
                  CHANNELS 3 Zrotation Xrotation Yrotation
                  End Site
                  {
                    OFFSET -2.33842 -0.294052 0.168128
                  }
                }
              }
              JOINT rPinky1
              {
                OFFSET -8.27202 -0.0477905 -0.4584
                CHANNELS 3 Zrotation Xrotation Yrotation
                JOINT rPinky2
                {
                  OFFSET -1.82734 -0.647385 -0.700984
                  CHANNELS 3 Zrotation Xrotation Yrotation
                  End Site
                  {
                    OFFSET -1.69225 -0.51767 -0.607171
                  }
                }
              }
            }
          }
        }
      }
      JOINT lCollar
      {
        OFFSET 2.68224 19.2634 -4.8768
        CHANNELS 3 Zrotation Xrotation Yrotation
        JOINT lShldr
        {
          OFFSET 8.77824 -1.95073 1.46304
          CHANNELS 3 Zrotation Xrotation Yrotation
          JOINT lForeArm
          {
            OFFSET 28.1742 -1.7115 0.48768
            CHANNELS 3 Zrotation Xrotation Yrotation
            JOINT lHand
            {
              OFFSET 22.5879 0.773209 7.07136
              CHANNELS 3 Zrotation Xrotation Yrotation
              JOINT lThumb1
              {
                OFFSET 1.2192 -0.487915 3.41376
                CHANNELS 3 Zrotation Xrotation Yrotation
                JOINT lThumb2
                {
                  OFFSET 3.37035 -0.52449 3.41376
                  CHANNELS 3 Zrotation Xrotation Yrotation
                  End Site
                  {
                    OFFSET 1.78271 -1.18214 1.43049
                  }
                }
              }
              JOINT lIndex1
              {
                OFFSET 7.75947 0.938293 5.60832
                CHANNELS 3 Zrotation Xrotation Yrotation
                JOINT lIndex2
                {
                  OFFSET 2.54057 -0.884171 1.56538
                  CHANNELS 3 Zrotation Xrotation Yrotation
                  End Site
                  {
                    OFFSET 1.62519 -0.234802 1.16502
                  }
                }
              }
              JOINT lMid1
              {
                OFFSET 8.24714 1.18213 3.41376
                CHANNELS 3 Zrotation Xrotation Yrotation
                JOINT lMid2
                {
                  OFFSET 3.10165 -0.590103 1.0647
                  CHANNELS 3 Zrotation Xrotation Yrotation
                  End Site
                  {
                    OFFSET 2.48547 -0.328903 0.83742
                  }
                }
              }
              JOINT lRing1
              {
                OFFSET 8.82822 0.546677 1.51678
                CHANNELS 3 Zrotation Xrotation Yrotation
                JOINT lRing2
                {
                  OFFSET 2.60934 -0.819778 -0.0198488
                  CHANNELS 3 Zrotation Xrotation Yrotation
                  End Site
                  {
                    OFFSET 2.33842 -0.294052 0.168128
                  }
                }
              }
              JOINT lPinky1
              {
                OFFSET 8.27202 -0.0477905 -0.4584
                CHANNELS 3 Zrotation Xrotation Yrotation
                JOINT lPinky2
                {
                  OFFSET 1.82734 -0.647385 -0.700984
                  CHANNELS 3 Zrotation Xrotation Yrotation
                  End Site
                  {
                    OFFSET 1.69225 -0.51767 -0.607171
                  }
                }
              }
            }
          }
        }
      }
    }
  }
  JOINT rButtock
  {
    OFFSET -8.77824 4.35084 1.2192
    CHANNELS 3 Zrotation Xrotation Yrotation
    JOINT rThigh
    {
      OFFSET 0 -1.70687 -2.19456
      CHANNELS 3 Zrotation Xrotation Yrotation
      JOINT rShin
      {
        OFFSET 0 -36.8199 0.73152
        CHANNELS 3 Zrotation Xrotation Yrotation
        JOINT rFoot
        {
          OFFSET 0.73152 -45.1104 -5.12064
          CHANNELS 3 Zrotation Xrotation Yrotation
          End Site
          {
            OFFSET -1.1221 -3.69964 12.103
          }
        }
      }
    }
  }
  JOINT lButtock
  {
    OFFSET 8.77824 4.35084 1.2192
    CHANNELS 3 Zrotation Xrotation Yrotation
    JOINT lThigh
    {
      OFFSET 0 -1.70687 -2.19456
      CHANNELS 3 Zrotation Xrotation Yrotation
      JOINT lShin
      {
        OFFSET 0 -36.8199 0.73152
        CHANNELS 3 Zrotation Xrotation Yrotation
        JOINT lFoot
        {
          OFFSET -0.73152 -45.1104 -5.12064
          CHANNELS 3 Zrotation Xrotation Yrotation
          End Site
          {
            OFFSET 1.1221 -3.69964 12.103
          }
        }
      }
    }
  }
}
MOTION
Frames:	4
Frame Time:	0.03333
0.037149712443351746 55.03336191177368 0.2643367275595665 -2.428605794906616 2.062208414077759 5.763857364654541 -2.381500005722046 14.542736053466797 3.4312386512756348 3.075589895248413 -9.354357719421387 1.1876301765441895 -5.537045478820801 14.291906356811523 -4.583022594451904 8.560949325561523 -25.32508087158203 -6.716230392456055 0.15952101349830627 -0.03555940464138985 -0.008921665139496326 -0.010019414126873016 -0.005326219368726015 0.03582124784588814 -0.015616638585925102 0.029526149854063988 -0.041230615228414536 50.98092269897461 39.501853942871094 11.662832260131836 -28.190011978149414 -32.88406753540039 71.59368133544922 0.1499517560005188 1.5033605098724365 0.1682674139738083 0.10033150017261505 -0.038906440138816833 0.09976270794868469 -0.05174962803721428 0.009871713817119598 0.04060767963528633 0.007356560789048672 -0.022073006257414818 0.02822691574692726 7.761667251586914 5.424441337585449 0.4181935489177704 0.021808579564094543 -0.03384534642100334 0.07153943181037903 2.8814327716827393 1.0066065788269043 0.11970385909080505 -0.031008590012788773 -0.014006238430738449 -0.021219629794359207 10.272470474243164 0.7553033828735352 0.08523063361644745 0.030805392190814018 0.046579983085393906 0.04391024261713028 2.353736162185669 -0.7412754893302917 -0.16593904793262482 0.08163478970527649 -0.06411076337099075 -0.03151097893714905 -56.920562744140625 37.691444396972656 -23.914302825927734 28.28453826904297 -34.40339660644531 -74.4338607788086 0.4850805103778839 -18.67513656616211 2.7700345516204834 -0.0026998587418347597 -0.06512375175952911 0.049183402210474014 0.02184651419520378 -0.09087450057268143 -0.03164634481072426 0.03500133752822876 -0.06051396578550339 0.11034703254699707 -7.695384502410889 5.47733211517334 -0.4901706278324127 0.02562938816845417 -0.07659406214952469 0.0713212862610817 -2.9111597537994385 1.031729817390442 -0.0663115605711937 -0.03478691726922989 0.06366851925849915 -0.07415024191141129 -10.318394660949707 0.7820727229118347 0.004748858045786619 -0.04373776167631149 -0.052049607038497925 -0.06127776578068733 -2.157010555267334 -0.6399433016777039 0.29689183831214905 -0.0727146565914154 0.00916537269949913 0.10141564160585403 -30.10890769958496 -45.70112991333008 -25.53623390197754 -1.6767888069152832 67.8387451171875 2.2483978271484375 -4.657760143280029 -11.435012817382812 -11.53380298614502 0.010229933075606823 -0.024027349427342415 -0.004860379733145237 36.25035095214844 -45.03807067871094 29.323318481445312 2.3234546184539795 70.21997833251953 -2.8635196685791016 4.760339260101318 -11.943665504455566 15.113418579101562
0.05676392465829849 63.87587785720825 0.35713305696845055 -2.1659786701202393 1.3897229433059692 5.429851531982422 -2.3313915729522705 14.70675277709961 2.8977813720703125 2.9850661754608154 -9.42548656463623 1.1148940324783325 -5.2419753074646 14.558416366577148 -4.602428913116455 8.762036323547363 -25.87211799621582 -7.226301670074463 0.07635585963726044 0.06189412251114845 0.019433727487921715 0.05455559864640236 0.043315786868333817 -0.010393611155450344 -0.06894734501838684 0.07237979024648666 -0.019082358106970787 51.99441909790039 39.796382904052734 10.790249824523926 -28.217029571533203 -33.61433029174805 72.3732681274414 0.24913226068019867 1.0960761308670044 -0.38509616255760193 0.02295657806098461 0.06761688739061356 0.08329140394926071 -0.0698169618844986 -0.006611897610127926 0.030965112149715424 -0.03440792113542557 -0.05779131129384041 0.03802154213190079 7.715775966644287 5.42208194732666 0.4458410143852234 -0.03135974705219269 -0.018814770504832268 0.06783387809991837 2.9434714317321777 0.913138747215271 0.0817258283495903 0.026515064761042595 0.047489140182733536 0.01730424538254738 10.26833724975586 0.7246270179748535 0.09077218919992447 -0.0424828827381134 0.015353381633758545 0.03509072586894035 2.310133934020996 -0.7275402545928955 -0.15194609761238098 0.12683388590812683 0.011041030287742615 -0.07373519241809845 -57.3022346496582 37.5726318359375 -23.3660945892334 27.856109619140625 -34.18303298950195 -74.24266052246094 0.21655265986919403 -17.842546463012695 2.3445968627929688 0.019603967666625977 0.010715912096202374 0.0306153055280447 0.024410458281636238 -0.03988799452781677 -0.03188623487949371 0.060598377138376236 -0.04621878266334534 0.08605826646089554 -7.660732269287109 5.500537395477295 -0.42613497376441956 0.027903135865926743 -0.06624961644411087 0.09844091534614563 -2.912330389022827 1.0022168159484863 -0.03759284317493439 -0.08373863250017166 -0.05253253132104874 -0.07731766998767853 -10.324480056762695 0.7483922243118286 -0.006550319492816925 -0.10080964118242264 -0.022160107269883156 0.0046235485933721066 -2.1587698459625244 -0.6781037449836731 0.31500929594039917 -0.04084504768252373 -0.005752901546657085 0.11021874845027924 -30.945859909057617 -45.94840621948242 -27.33332061767578 -1.7170792818069458 68.26819610595703 2.116328239440918 -5.637056350708008 -11.178118705749512 -11.475332260131836 0.056592993438243866 0.024259040132164955 0.0050638397224247456 34.91144561767578 -43.72048568725586 28.27280044555664 2.9966819286346436 69.39695739746094 -3.031646251678467 5.0321364402771 -11.543777465820312 16.403400421142578
0.049337372183799744 65.21323919296265 0.3453976474702358 -50.76769256591797 68.80902862548828 -39.43075180053711 13.65776252746582 6.78236722946167 -0.12958888709545135 5.247353553771973 -7.3868255615234375 0.6327922940254211 -9.832316398620605 22.507192611694336 -19.893083572387695 17.469079971313477 -25.577394485473633 -36.073707580566406 0.19009046256542206 0.06732896715402603 0.009053192101418972 -0.08375891298055649 0.09814666956663132 -0.057439301162958145 -0.10400126874446869 -0.02817758172750473 -0.07553985714912415 61.7767448425293 -23.77238655090332 16.593873977661133 -27.134605407714844 -27.164310455322266 63.02430725097656 -2.069646120071411 -35.083282470703125 -6.401873588562012 -0.01734493486583233 0.02771029993891716 0.12151700258255005 -0.07024926692247391 0.010024994611740112 -0.011563505046069622 -0.036002978682518005 -0.04570019617676735 0.016516664996743202 7.568952560424805 5.515610218048096 0.3846466541290283 -0.0642615556716919 0.05497383698821068 0.08810493350028992 2.8876848220825195 0.9842291474342346 0.023162780329585075 0.008282041177153587 0.00034135294845327735 0.03944190964102745 10.192412376403809 0.8321593999862671 0.14627517759799957 0.022900458425283432 -0.05051355063915253 0.018338391557335854 2.4737415313720703 -0.6310170292854309 -0.2637476623058319 0.01643030159175396 -0.1391177922487259 0.09782860428094864 -117.7588119506836 45.549007415771484 55.08127212524414 27.84518814086914 -40.42716979980469 -84.70252990722656 21.89865493774414 -74.51780700683594 28.874305725097656 -0.034612514078617096 0.035744037479162216 0.09002804756164551 0.11637438833713531 -0.057897280901670456 0.03795735538005829 -0.05386701598763466 0.08362431079149246 0.07724257558584213 -7.7678961753845215 5.509836196899414 -0.4181737005710602 0.11365283280611038 -0.143929585814476 0.10561952739953995 -2.9143543243408203 0.8940160274505615 -0.16854989528656006 -0.19637544453144073 -0.061766959726810455 0.0009219570201821625 -10.084168434143066 0.8342715501785278 -0.1120259016752243 0.0045381267555058 -0.02129737287759781 0.09309530258178711 -2.1924006938934326 -0.6571523547172546 0.1924036145210266 -0.062091320753097534 0.02594459429383278 0.10493675619363785 -3.523956537246704 3.679641008377075 -12.6246337890625 -0.6043779253959656 41.09699249267578 1.275383472442627 -12.613234519958496 -25.981473922729492 -19.237974166870117 -0.025034094229340553 -0.00867538433521986 -0.00956645142287016 79.50309753417969 -58.63003921508789 64.9060287475586 11.183062553405762 84.2380142211914 -11.864941596984863 -2.4249534606933594 -11.674429893493652 -11.198271751403809
-0.044794194400310516 62.94095516204834 0.3485259599983692 -51.21417236328125 69.56795501708984 -40.351409912109375 13.613141059875488 6.2252092361450195 -0.24182367324829102 6.1054887771606445 -6.6615142822265625 0.392795592546463 -10.235368728637695 23.661731719970703 -21.359519958496094 17.06337547302246 -25.129423141479492 -36.87127685546875 0.19539248943328857 0.11150223016738892 -0.029535019770264626 -0.0745781883597374 0.10270879417657852 -0.04592521861195564 -0.07505573332309723 -0.038516342639923096 -0.04115648940205574 61.2444953918457 -25.704267501831055 19.0946102142334 -26.897930145263672 -27.185699462890625 62.967689514160156 -2.5309062004089355 -38.30619430541992 -6.768731117248535 -0.04611394926905632 0.09451304376125336 0.038827259093523026 -0.0797121599316597 -0.00821453146636486 -0.004692114889621735 -0.07247605174779892 -0.07845249772071838 0.04807901754975319 7.641421794891357 5.468293190002441 0.3833194375038147 -0.038574181497097015 0.10317657887935638 0.13309890031814575 2.9166321754455566 1.113349199295044 0.04483560100197792 0.07180620729923248 0.04203996807336807 0.09572348743677139 10.124421119689941 0.8867952823638916 0.15939928591251373 0.016523784026503563 -0.04164952412247658 -0.0029130165930837393 2.5273091793060303 -0.591651201248169 -0.21677705645561218 0.029892265796661377 -0.20262320339679718 0.03693227469921112 -117.96533966064453 44.419212341308594 55.25011444091797 28.209331512451172 -40.46824264526367 -84.52842712402344 23.616392135620117 -75.55352020263672 30.677473068237305 -0.04329729452729225 0.08577153086662292 0.05119314789772034 0.13576048612594604 -0.1098732203245163 0.08266957849264145 -0.09613711386919022 0.04993733763694763 0.08334479480981827 -7.671627044677734 5.410584449768066 -0.392480731010437 0.14581820368766785 -0.19820909202098846 0.01885007880628109 -2.8819265365600586 0.9617791175842285 -0.19974777102470398 -0.07865738123655319 -0.004042601678520441 0.020151013508439064 -10.115345001220703 0.8538562655448914 -0.08245643973350525 -0.05845753476023674 -0.07009381055831909 0.09216554462909698 -2.154021739959717 -0.6628735065460205 0.2399502992630005 -0.030521411448717117 0.11591136455535889 0.09741330146789551 -1.9475065469741821 5.297147274017334 -12.6583890914917 -0.5687099099159241 39.570980072021484 1.5309876203536987 -13.12917709350586 -28.121700286865234 -19.297195434570312 -0.11829180270433426 -0.06128774210810661 -0.06695575267076492 78.76411437988281 -58.657161712646484 63.926734924316406 11.04365062713623 84.39366149902344 -11.664755821228027 -3.130298376083374 -11.640718460083008 -13.311941146850586
